<svg xmlns="http://www.w3.org/2000/svg" viewBox="0 0 32 32" fill="none" stroke="#60a5fa" stroke-width="2" stroke-linecap="round" stroke-linejoin="round">
  <path d="M16 4c-3 0-5.5 1-7 3s-2 4.5-1.5 7c.5 2.5 2 4.5 4 6s3.5 2 4.5 2.5"/>
  <path d="M16 4c3 0 5.5 1 7 3s2 4.5 1.5 7c-.5 2.5-2 4.5-4 6s-3.5 2-4.5 2.5"/>
  <path d="M16 4v18.5"/>
  <circle cx="16" cy="10" r="1.5" fill="#60a5fa" stroke="none"/>
  <circle cx="11" cy="14" r="1.5" fill="#60a5fa" stroke="none"/>
  <circle cx="21" cy="14" r="1.5" fill="#60a5fa" stroke="none"/>
  <circle cx="16" cy="18" r="1.5" fill="#60a5fa" stroke="none"/>
  <line x1="16" y1="10" x2="11" y2="14" stroke-width="1"/>
  <line x1="16" y1="10" x2="21" y2="14" stroke-width="1"/>
  <line x1="11" y1="14" x2="16" y2="18" stroke-width="1"/>
  <line x1="21" y1="14" x2="16" y2="18" stroke-width="1"/>
  <path d="M16 22.5v3.5" stroke-width="1.5"/>
  <path d="M13 28h6" stroke-width="1.5"/>
</svg>
